<?xml version="1.0" encoding="UTF-8" standalone="no"?>
<!DOCTYPE svg PUBLIC "-//W3C//DTD SVG 1.1//EN"
 "http://www.w3.org/Graphics/SVG/1.1/DTD/svg11.dtd">
<!-- Generated by graphviz version 2.43.0 (0)
 -->
<!-- Title: dag Pages: 1 -->
<svg width="206pt" height="332pt"
 viewBox="0.00 0.00 206.00 332.00" xmlns="http://www.w3.org/2000/svg" xmlns:xlink="http://www.w3.org/1999/xlink">
<g id="graph0" class="graph" transform="scale(1 1) rotate(0) translate(4 328)">
<title>dag</title>
<polygon fill="white" stroke="transparent" points="-4,4 -4,-328 202,-328 202,4 -4,4"/>
<!-- ID0000001 -->
<g id="node1" class="node">
<title>ID0000001</title>
<ellipse fill="#1b9e77" stroke="#000000" cx="27" cy="-306" rx="27" ry="18"/>
</g>
<!-- ID0000004 -->
<g id="node4" class="node">
<title>ID0000004</title>
<ellipse fill="#1b9e77" stroke="#000000" cx="99" cy="-234" rx="27" ry="18"/>
</g>
<!-- ID0000001&#45;&gt;ID0000004 -->
<g id="edge1" class="edge">
<title>ID0000001&#45;&gt;ID0000004</title>
<path fill="none" stroke="#000000" d="M41.57,-290.83C51.75,-280.94 65.52,-267.55 77.03,-256.36"/>
<polygon fill="#000000" stroke="#000000" points="79.47,-258.87 84.2,-249.38 74.59,-253.85 79.47,-258.87"/>
</g>
<!-- ID0000002 -->
<g id="node2" class="node">
<title>ID0000002</title>
<ellipse fill="#1b9e77" stroke="#000000" cx="99" cy="-306" rx="27" ry="18"/>
</g>
<!-- ID0000002&#45;&gt;ID0000004 -->
<g id="edge2" class="edge">
<title>ID0000002&#45;&gt;ID0000004</title>
<path fill="none" stroke="#000000" d="M99,-287.7C99,-279.98 99,-270.71 99,-262.11"/>
<polygon fill="#000000" stroke="#000000" points="102.5,-262.1 99,-252.1 95.5,-262.1 102.5,-262.1"/>
</g>
<!-- ID0000003 -->
<g id="node3" class="node">
<title>ID0000003</title>
<ellipse fill="#1b9e77" stroke="#000000" cx="171" cy="-306" rx="27" ry="18"/>
</g>
<!-- ID0000003&#45;&gt;ID0000004 -->
<g id="edge3" class="edge">
<title>ID0000003&#45;&gt;ID0000004</title>
<path fill="none" stroke="#000000" d="M156.43,-290.83C146.25,-280.94 132.48,-267.55 120.97,-256.36"/>
<polygon fill="#000000" stroke="#000000" points="123.41,-253.85 113.8,-249.38 118.53,-258.87 123.41,-253.85"/>
</g>
<!-- ID0000005 -->
<g id="node5" class="node">
<title>ID0000005</title>
<ellipse fill="#1b9e77" stroke="#000000" cx="99" cy="-162" rx="27" ry="18"/>
</g>
<!-- ID0000004&#45;&gt;ID0000005 -->
<g id="edge4" class="edge">
<title>ID0000004&#45;&gt;ID0000005</title>
<path fill="none" stroke="#000000" d="M99,-215.7C99,-207.98 99,-198.71 99,-190.11"/>
<polygon fill="#000000" stroke="#000000" points="102.5,-190.1 99,-180.1 95.5,-190.1 102.5,-190.1"/>
</g>
<!-- ID0000006 -->
<g id="node6" class="node">
<title>ID0000006</title>
<ellipse fill="#1b9e77" stroke="#000000" cx="99" cy="-90" rx="27" ry="18"/>
</g>
<!-- ID0000005&#45;&gt;ID0000006 -->
<g id="edge5" class="edge">
<title>ID0000005&#45;&gt;ID0000006</title>
<path fill="none" stroke="#000000" d="M99,-143.7C99,-135.98 99,-126.71 99,-118.11"/>
<polygon fill="#000000" stroke="#000000" points="102.5,-118.1 99,-108.1 95.5,-118.1 102.5,-118.1"/>
</g>
<!-- ID0000007 -->
<g id="node7" class="node">
<title>ID0000007</title>
<ellipse fill="#1b9e77" stroke="#000000" cx="99" cy="-18" rx="27" ry="18"/>
</g>
<!-- ID0000006&#45;&gt;ID0000007 -->
<g id="edge6" class="edge">
<title>ID0000006&#45;&gt;ID0000007</title>
<path fill="none" stroke="#000000" d="M99,-71.7C99,-63.98 99,-54.71 99,-46.11"/>
<polygon fill="#000000" stroke="#000000" points="102.5,-46.1 99,-36.1 95.5,-46.1 102.5,-46.1"/>
</g>
</g>
</svg>
